# Blender v2.65 (sub 0) OBJ File: ''
# www.blender.org
mtllib bad.mtl
o Plane_Plane.002
v 0.000000 1.000000 0.000000
v -0.000000 0.000000 1.414214
v -1.414214 0.000000 -0.000000
v 1.414214 0.000000 0.000000
v 0.000000 0.000000 -1.414214
v 0.000000 -1.000000 0.000000
vn 0.500000 -0.707107 -0.500000
vn -0.500000 -0.707107 -0.500000
vn -0.500000 -0.707107 0.500000
vn 0.500000 -0.707107 0.500000
vn 0.500000 0.707107 -0.500000
vn -0.500000 0.707107 -0.500000
vn -0.500000 0.707107 0.500000
vn 0.500000 0.707107 0.500000
usemtl None
s off
f 1//1 2//1 3//1
f 2//2 1//2 4//2
f 4//3 1//3 5//3
f 5//4 1//4 3//4
f 6//5 3//5 2//5
f 2//6 4//6 6//6
f 4//7 5//7 6//7
f 5//8 3//8 6//8
