# Blender v2.66 (sub 1) OBJ File: 'book.blend'
# www.blender.org
mtllib book.mtl
v 0.029017 -0.365738 0.246655
v -0.029477 0.365702 0.246655
v 0.495099 -0.328465 0.463240
v 0.436605 0.402974 0.463240
v 0.768969 -0.440101 0.172296
v -0.587769 -0.548600 -0.458170
v -0.667485 0.448217 -0.458170
v 0.689253 0.556716 0.172297
v 0.613044 -0.452571 0.509985
v -0.743694 -0.561070 -0.120482
v -0.823409 0.435747 -0.120482
v 0.533328 0.544247 0.509985
v 0.747796 -0.441794 0.218152
v 0.634218 -0.450877 0.464130
v -0.608942 -0.550294 -0.412315
v -0.722520 -0.559376 -0.166337
v -0.688658 0.446524 -0.412315
v -0.802236 0.437441 -0.166337
v 0.668080 0.555023 0.218152
v 0.554502 0.545940 0.464130
v 0.692984 0.510060 0.172297
v -0.663754 0.401561 -0.458170
v 0.537059 0.497591 0.509985
v -0.819679 0.389092 -0.120482
v -0.684927 0.399868 -0.412315
v -0.798505 0.390785 -0.166337
v 0.558232 0.499284 0.464130
v 0.671810 0.508367 0.218152
v 0.696233 -0.377684 0.196711
v 0.582655 -0.386767 0.442689
v -0.568224 -0.478804 -0.390874
v -0.681802 -0.487886 -0.144896
v -0.639041 0.406731 -0.390874
v -0.752619 0.397648 -0.144896
v 0.511838 0.498768 0.442689
v 0.625416 0.507851 0.196711
vn 0.079716 -0.996818 -0.000001
vn -0.904492 -0.072333 -0.420312
vn 0.904492 0.072333 0.420312
vn 0.079716 -0.996818 0.000000
vn -0.904492 -0.072333 -0.420311
vn 0.904492 0.072333 0.420311
vn 0.418974 0.033506 -0.907380
vn -0.418974 -0.033504 0.907380
vn 0.079717 -0.996818 -0.000002
vn -0.904493 -0.072327 -0.420311
vn -0.079716 0.996818 -0.000001
vn 0.904491 0.072328 0.420314
vn 0.023226 -0.999387 -0.026179
vn -0.904492 -0.072329 -0.420314
vn -0.904492 -0.072329 -0.420312
vn -0.079716 0.996818 0.000000
vn 0.904492 0.072328 0.420313
vn 0.904493 0.072327 0.420312
vn -0.418974 -0.033506 0.907380
vn 0.904492 0.072333 0.420313
vn -0.904492 -0.072333 -0.420313
vn 0.418973 0.033506 -0.907380
vn 0.904491 0.072333 0.420314
vn 0.418974 0.033505 -0.907380
vn 0.135898 -0.990377 0.026179
vn 0.079715 -0.996818 0.000002
vn -0.904493 -0.072328 -0.420310
vn 0.904492 0.072327 0.420313
vn 0.023225 -0.999387 -0.026180
vn -0.904493 -0.072334 -0.420310
vn -0.904493 -0.072328 -0.420311
vn 0.904491 0.072330 0.420314
vn 0.904492 0.072328 0.420312
vn -0.904491 -0.072333 -0.420314
vn -0.418974 -0.033505 0.907380
vn -0.418973 -0.033506 0.907380
vn 0.418975 0.033506 -0.907380
usemtl Paper
s off
f 29//1 30//1 32//1
f 31//2 32//2 33//2
f 30//3 29//3 36//3
f 31//4 29//4 32//4
f 32//5 34//5 33//5
f 35//6 30//6 36//6
usemtl Cover
f 21//7 22//7 7//7
f 23//8 12//8 24//8
f 14//9 9//9 10//9
f 26//10 24//10 11//10
f 18//11 11//11 20//11
f 28//12 21//12 8//12
f 5//9 13//9 15//9
f 28//13 27//13 35//13
f 22//14 25//14 17//14
f 25//15 26//15 17//15
f 7//11 17//11 8//11
f 17//16 18//16 19//16
f 23//17 27//17 20//17
f 27//18 28//18 19//18
f 5//7 6//7 22//7
f 9//19 23//19 10//19
f 16//2 10//2 26//2
f 13//20 5//20 21//20
f 6//21 15//21 22//21
f 16//22 26//22 32//22
f 9//23 14//23 27//23
f 15//19 13//19 31//19
f 25//19 15//19 33//19
f 13//19 28//19 36//19
f 14//24 16//24 32//24
f 26//25 25//25 33//25
f 27//22 14//22 30//22
f 8//7 21//7 7//7
f 12//19 11//19 24//19
f 16//26 14//26 10//26
f 18//27 26//27 11//27
f 11//11 12//11 20//11
f 19//28 28//28 8//28
f 6//26 5//26 15//26
f 36//29 28//29 35//29
f 7//30 22//30 17//30
f 26//31 18//31 17//31
f 17//11 19//11 8//11
f 18//16 20//16 19//16
f 12//32 23//32 20//32
f 20//33 27//33 19//33
f 21//7 5//7 22//7
f 23//19 24//19 10//19
f 10//5 24//5 26//5
f 28//23 13//23 21//23
f 15//34 25//34 22//34
f 26//7 34//7 32//7
f 23//20 9//20 27//20
f 13//35 29//35 31//35
f 15//36 31//36 33//36
f 29//19 13//19 36//19
f 30//7 14//7 32//7
f 34//25 26//25 33//25
f 35//37 27//37 30//37
usemtl Title
f 2//19 1//19 4//19
f 1//19 3//19 4//19
