# Blender v2.65 (sub 0) OBJ File: ''
# www.blender.org
mtllib planeZ.mtl
o Plane
v 1.000000 -1.000000 0.000000
v -1.000000 -1.000000 0.000000
v 1.000000 1.000000 0.000000
v -1.000000 1.000000 0.000000
v 0.000000 -2.000000 0.000000
v 1.000000 -2.000000 0.000000
v 1.000000 1.000000 1.000000
v -1.000000 1.000000 1.000000
v 2.000000 -1.000000 0.000000
v 2.000000 -2.000000 0.000000
v 1.000000 -2.000000 1.000000
v 2.000000 -2.000000 1.000000
vn 0.000000 0.000000 1.000000
vn 0.000000 -1.000000 -0.000000
vn 0.000000 1.000000 0.000000
usemtl None
s off
f 2//1 1//1 3//1
f 2//1 3//1 4//1
f 6//1 1//1 2//1
f 6//1 2//1 5//1
f 4//2 3//2 7//2
f 4//2 7//2 8//2
f 1//1 6//1 10//1
f 1//1 10//1 9//1
f 10//3 6//3 11//3
f 10//3 11//3 12//3
